<svg version="1.1" id="Layer_1" xmlns="http://www.w3.org/2000/svg" xmlns:xlink="http://www.w3.org/1999/xlink" x="0px" y="0px"
	 width="100%" viewBox="0 0 1024 528" enable-background="new 0 0 1024 528" xml:space="preserve">
<path fill="#000000" opacity="1.000000" stroke="none" 
	d="
M733.000000,529.000000 
	C488.666656,529.000000 244.833328,529.000000 1.000000,529.000000 
	C1.000000,353.000000 1.000000,177.000000 1.000000,1.000000 
	C342.333344,1.000000 683.666687,1.000000 1025.000000,1.000000 
	C1025.000000,177.000000 1025.000000,353.000000 1025.000000,529.000000 
	C927.833313,529.000000 830.666687,529.000000 733.000000,529.000000 
M222.605560,519.702332 
	C246.934845,519.694763 271.264130,519.682495 295.593414,519.686218 
	C298.294922,519.686646 300.724457,519.582764 302.708008,517.082153 
	C311.385468,506.142609 320.227234,495.333191 329.034698,484.497131 
	C350.635162,457.921478 372.320740,431.414368 393.777985,404.723663 
	C396.830566,400.926544 400.085754,399.678833 404.828278,399.687958 
	C476.160461,399.825104 547.493286,399.883118 618.824951,399.645691 
	C625.496887,399.623444 629.760925,401.642517 633.924072,406.813446 
	C663.423645,443.454163 693.275635,479.811096 722.845215,516.395874 
	C725.100769,519.186401 727.466553,519.735535 730.571289,519.732056 
	C756.237610,519.703491 781.903931,519.729614 807.570190,519.691772 
	C809.158569,519.689392 810.905640,520.210449 813.052307,518.309937 
	C779.008789,479.346436 744.987488,440.408356 710.877686,401.369019 
	C713.560120,399.229431 715.801025,399.855072 717.874573,399.852814 
	C762.374023,399.804565 806.873413,399.809479 851.372864,399.780060 
	C858.357849,399.775452 858.828918,399.056366 857.098633,392.221588 
	C851.997009,372.070831 846.796631,351.943176 841.969604,331.726593 
	C841.089661,328.041077 838.796570,324.351898 840.323547,319.675568 
	C844.369568,319.675568 848.336914,319.675110 852.304199,319.675629 
	C898.970276,319.681915 945.636414,319.692322 992.302490,319.689789 
	C998.327942,319.689453 998.733337,319.157654 997.279358,313.425385 
	C995.847534,307.780243 994.367126,302.147339 992.952881,296.497833 
	C981.478027,250.660172 970.014893,204.819550 958.545593,158.980499 
	C954.222717,141.703262 949.907532,124.424049 945.550964,107.155296 
	C944.811218,104.223251 944.142822,101.324066 939.984558,101.347260 
	C923.485413,101.439285 906.985291,101.394211 890.485718,101.338173 
	C887.248169,101.327179 886.383972,102.704475 887.180298,105.726830 
	C888.790344,111.837479 890.242981,117.989418 891.784302,124.118332 
	C899.455688,154.622696 907.123657,185.127930 914.825989,215.624481 
	C915.732666,219.214310 915.278259,221.355270 910.787781,221.342560 
	C879.955139,221.255203 849.122131,221.280411 818.289307,221.327225 
	C815.533936,221.331406 814.017822,220.397339 813.407837,217.558228 
	C812.289734,212.353928 810.870361,207.214355 809.578247,202.047394 
	C801.785217,170.885696 794.029114,139.714706 786.172668,108.569008 
	C784.364502,101.400734 784.140564,101.364265 776.611328,101.363060 
	C734.278503,101.356293 691.945740,101.374947 649.612976,101.333908 
	C647.373657,101.331734 644.965149,101.989792 642.974731,100.510468 
	C642.116760,98.298943 643.875671,97.324127 644.841125,96.111130 
	C650.224304,89.347404 655.664734,82.628883 661.121277,75.923950 
	C674.028992,60.063156 686.985535,44.241829 699.827881,28.328312 
	C700.987671,26.891224 703.016174,25.422237 702.054626,23.128103 
	C701.295959,21.318058 699.379333,21.354269 697.710022,21.351694 
	C682.043762,21.327534 666.377502,21.338085 650.711243,21.311008 
	C648.553589,21.307280 646.873047,22.127197 645.473328,23.740860 
	C637.649597,32.760628 629.822327,41.777473 621.961365,50.764832 
	C607.977966,66.751938 593.914673,82.669914 580.039978,98.750656 
	C578.275269,100.795906 576.497375,101.384903 574.036560,101.382751 
	C533.370422,101.347191 492.704193,101.337532 452.038116,101.389984 
	C449.332062,101.393471 447.393738,100.686241 445.650055,98.447578 
	C442.595093,94.525337 439.150574,90.906738 435.873077,87.157608 
	C418.939667,67.787621 401.871216,48.532978 385.163055,28.970600 
	C380.525177,23.540422 375.831268,20.607895 368.260681,21.086611 
	C356.474792,21.831877 344.606842,21.276814 332.773651,21.278252 
	C330.773804,21.278494 328.773071,21.273016 326.774323,21.327772 
	C322.949554,21.432550 322.418579,23.125919 324.545532,26.057110 
	C325.132385,26.865856 325.664764,27.718037 326.295074,28.490822 
	C344.260590,50.518044 362.258636,72.518837 380.162659,94.595886 
	C381.527466,96.278755 383.729309,97.771217 383.173615,100.566467 
	C381.161499,101.925308 378.933594,101.336014 376.841980,101.338081 
	C334.342529,101.380196 291.843079,101.369804 249.343597,101.377411 
	C242.085754,101.378716 241.780777,101.709694 239.992310,108.843498 
	C231.001373,144.706192 221.951096,180.554047 212.994064,216.425186 
	C212.232315,219.475815 211.282455,221.404251 207.509064,221.388046 
	C176.843399,221.256226 146.176895,221.279526 115.510780,221.334747 
	C111.347939,221.342239 110.269379,219.681747 111.301460,215.756378 
	C113.711235,206.591248 115.878868,197.362671 118.177872,188.168121 
	C124.909081,161.247498 131.677261,134.336105 138.378937,107.408142 
	C139.614975,102.441681 138.795822,101.407440 133.672623,101.388420 
	C118.173019,101.330894 102.672508,101.430092 87.173721,101.301819 
	C83.604401,101.272285 81.652229,102.463020 80.789391,106.050453 
	C78.494102,115.593628 75.906921,125.066124 73.523148,134.588577 
	C58.645481,194.020493 43.799587,253.460342 28.918852,312.891479 
	C27.297554,319.366638 27.481194,319.788757 34.079422,319.786285 
	C75.245201,319.770935 116.410957,319.706299 157.576721,319.663483 
	C165.743256,319.654999 173.911011,319.752991 182.075836,319.636505 
	C185.605164,319.586151 186.963379,320.739258 186.037064,324.392059 
	C180.359253,346.781616 174.805023,369.202545 169.120743,391.590424 
	C167.032593,399.814728 166.939575,399.815521 175.631119,399.815430 
	C219.797226,399.814941 263.963379,399.797150 308.129395,399.848114 
	C310.304840,399.850616 312.792389,399.021179 315.013397,401.578461 
	C280.981964,440.529816 246.970383,479.458496 212.615158,518.780457 
	C216.353882,520.155823 219.037277,519.496582 222.605560,519.702332 
z"/>
<path fill="#000000" opacity="1.000000" stroke="none" 
	d="
M297.510345,200.699799 
	C297.412506,188.564499 297.427002,176.899719 297.153320,165.241714 
	C297.045319,160.641113 298.522369,158.693832 303.432434,158.723984 
	C333.258484,158.907104 363.086151,158.904602 392.912872,158.821381 
	C397.493835,158.808594 399.445435,160.222031 399.413971,165.145386 
	C399.220123,195.471588 399.203735,225.799683 399.323303,256.126373 
	C399.341705,260.783783 397.517609,262.209442 393.121399,262.193085 
	C363.294312,262.081970 333.466522,262.071075 303.639374,262.159119 
	C299.279602,262.171997 297.359406,260.914429 297.522552,256.141876 
	C298.148682,237.824265 296.557404,219.498734 297.510345,200.699799 
z"/>
<path fill="#000000" opacity="1.000000" stroke="none" 
	d="
M636.096680,159.948792 
	C665.213135,159.959106 693.843994,159.966522 722.474854,159.985992 
	C728.701538,159.990234 728.899658,160.192902 728.866394,166.463196 
	C728.710327,195.924042 728.452087,225.384933 728.476868,254.845596 
	C728.480713,259.393982 727.094299,260.969818 722.563232,260.951019 
	C692.433594,260.826202 662.303162,260.846680 632.173279,260.930695 
	C628.188599,260.941803 626.578735,259.608002 626.595520,255.426132 
	C626.715881,225.462967 626.632019,195.499054 626.667053,165.535431 
	C626.673462,160.059097 626.884338,159.998932 636.096680,159.948792 
z"/>
</svg>