<svg version="1.1" id="Layer_1" xmlns="http://www.w3.org/2000/svg" xmlns:xlink="http://www.w3.org/1999/xlink" x="0px" y="0px"
	 width="100%" viewBox="0 0 1980 400" enable-background="new 0 0 1980 400" xml:space="preserve">
<path fill="#010101" opacity="1.000000" stroke="none" 
	d="
M1483.000000,401.000000 
	C988.666687,401.000000 494.833344,401.000000 1.000000,401.000000 
	C1.000000,267.666656 1.000000,134.333328 1.000000,1.000000 
	C661.000000,1.000000 1321.000000,1.000000 1981.000000,1.000000 
	C1981.000000,134.333328 1981.000000,267.666656 1981.000000,401.000000 
	C1815.166626,401.000000 1649.333374,401.000000 1483.000000,401.000000 
M513.183838,317.846008 
	C513.183838,317.846008 513.277649,317.824768 513.392456,318.500061 
	C521.431946,328.417725 532.154236,334.709625 543.643799,340.761963 
	C543.643799,340.761963 544.097107,340.932709 544.212891,341.595184 
	C552.804321,347.957886 562.787537,350.890686 573.021240,353.096039 
	C576.366028,353.816864 579.835754,353.957947 583.996887,354.518890 
	C585.014709,354.528839 586.032532,354.538757 587.675720,355.053833 
	C591.501099,355.264954 595.326538,355.476074 599.955017,355.802277 
	C601.306091,355.830872 602.657227,355.859497 604.755310,356.198334 
	C621.481995,357.039948 638.027771,356.326111 653.470459,348.945892 
	C658.804199,346.396881 663.698486,342.928162 669.285889,339.478180 
	C670.137573,338.868683 670.989258,338.259186 672.471252,337.860260 
	C673.014404,337.267761 673.557617,336.675262 674.639160,335.689728 
	C694.004456,319.159302 703.606812,297.691620 705.268494,272.731842 
	C706.300598,257.229004 705.898010,241.638641 702.150574,226.362396 
	C701.141663,222.249832 700.271362,218.103241 699.105774,212.947357 
	C715.013733,212.947357 730.159424,212.947357 745.822205,212.947357 
	C744.774780,208.586670 744.016663,205.205078 743.148132,201.852097 
	C738.785583,185.009323 734.428040,168.165009 729.949280,151.353043 
	C729.587158,149.993713 728.390625,147.869995 727.469543,147.809464 
	C722.246704,147.466217 716.989563,147.643326 711.279907,147.643326 
	C713.998657,159.697723 716.518982,170.871994 719.196594,182.743820 
	C709.948669,182.743820 701.813965,182.906281 693.699524,182.572464 
	C692.451111,182.521103 690.631531,180.374725 690.207642,178.876999 
	C687.637268,169.793503 685.201355,160.660233 683.150269,151.447922 
	C682.446228,148.285522 681.106506,147.472260 678.138733,147.506226 
	C667.307739,147.630234 656.474426,147.567474 645.642151,147.534576 
	C644.304138,147.530518 642.966858,147.282593 640.898315,147.073959 
	C647.098938,139.150070 652.710144,131.979431 658.321350,124.808800 
	C658.038208,124.405052 657.755066,124.001297 657.471924,123.597549 
	C653.348450,123.597549 649.215820,123.766586 645.104370,123.544464 
	C641.771057,123.364380 639.598083,124.568321 637.533081,127.224884 
	C632.852783,133.245880 627.895386,139.065979 622.785278,144.728210 
	C621.512268,146.138763 619.249268,147.389389 617.410156,147.434143 
	C606.917236,147.689499 596.413696,147.638245 585.917175,147.474335 
	C584.275879,147.448700 582.137817,146.771454 581.104004,145.614212 
	C574.813293,138.572327 568.775635,131.304306 563.132812,123.514626 
	C565.918030,112.289253 572.085815,103.321396 582.343933,98.028542 
	C600.857178,88.476357 620.136841,88.424316 639.118164,96.296524 
	C647.325806,99.700523 654.731262,105.055443 662.456970,109.599197 
	C667.688110,112.675842 671.661438,113.167526 674.442993,108.816254 
	C679.275208,101.257309 682.831421,92.882622 687.621582,84.633965 
	C691.108704,79.406670 689.820190,70.260178 683.256958,65.472527 
	C673.176636,58.119366 662.874939,50.489601 651.542358,45.566513 
	C633.693848,37.812744 614.454346,33.755367 594.968445,32.872860 
	C577.296631,32.072517 559.506714,31.451019 542.438599,38.573158 
	C528.735840,44.291019 516.553833,51.171207 507.500488,63.666908 
	C495.937653,79.626183 492.686737,98.059120 490.071106,116.569702 
	C488.956482,124.457657 491.224762,132.923599 492.544891,141.030945 
	C494.284454,151.713959 497.094788,162.100662 503.083466,171.395157 
	C505.163696,174.623672 506.616211,178.256607 508.655548,182.299835 
	C499.763123,182.299835 491.786926,182.299835 483.262451,182.299835 
	C485.944489,170.682617 488.502045,159.604538 491.284668,147.551682 
	C486.379395,147.551682 481.939209,147.806870 477.543121,147.476349 
	C473.544739,147.175751 472.088165,148.792831 471.235931,152.578583 
	C468.651245,164.059982 465.596924,175.434906 462.799774,186.869476 
	C460.726685,195.344116 458.769440,203.847092 456.542938,213.257278 
	C472.533783,213.257278 487.723206,213.257278 503.322540,213.257278 
	C501.305145,221.233582 499.499146,228.374054 497.484589,236.339050 
	C512.070007,236.339050 525.928162,236.339050 540.886292,236.339050 
	C539.344971,238.636322 538.586609,240.036026 537.578979,241.224411 
	C531.242981,248.697281 524.790039,256.071869 518.511597,263.592377 
	C516.306580,266.233612 514.484924,269.194855 511.816406,272.254639 
	C507.878662,277.635590 503.257690,282.691742 502.564911,290.317963 
	C502.291504,292.540070 502.018097,294.762207 501.373627,297.475433 
	C502.982849,300.642792 504.592072,303.810120 506.277252,307.630615 
	C506.775818,308.335754 507.274414,309.040863 507.520844,310.380432 
	C509.402008,312.837585 511.283173,315.294739 513.183838,317.846008 
M806.284424,233.499847 
	C806.284424,250.927673 806.284424,268.355499 806.284424,285.799927 
	C815.576355,285.799927 824.271484,285.799927 833.176453,285.799927 
	C833.176453,271.676758 833.091431,258.024811 833.216370,244.374786 
	C833.269653,238.557816 833.512085,232.718613 834.120239,226.937027 
	C834.813049,220.350922 839.886230,216.448013 846.588013,216.792801 
	C852.872192,217.116104 856.102112,220.584320 856.438416,227.547394 
	C856.639160,231.704651 856.751404,235.869888 856.762939,240.031937 
	C856.801819,254.023468 856.714478,268.015900 856.874695,282.005707 
	C856.890869,283.414093 858.216614,285.996429 859.005188,286.024139 
	C867.397766,286.318878 875.804565,286.207123 884.413452,286.207123 
	C884.413452,278.923584 884.298767,272.432098 884.437805,265.946106 
	C884.708618,253.312210 884.842407,240.664978 885.581604,228.055450 
	C886.016968,220.628830 891.070129,216.546600 898.013062,216.796127 
	C904.617188,217.033463 907.865234,220.972565 907.896851,229.097168 
	C907.963562,246.253342 907.940918,263.409851 907.954468,280.566223 
	C907.955872,282.327026 907.954651,284.087830 907.954651,285.908691 
	C917.544922,285.908691 926.461060,285.908691 935.485657,285.908691 
	C935.485657,263.241730 935.737915,240.933716 935.330627,218.637756 
	C935.209839,212.027374 932.995789,205.732742 927.541260,200.886276 
	C917.317932,191.802490 893.691101,191.658401 884.885437,204.638077 
	C884.017944,205.916779 882.847534,206.990036 881.533752,208.480911 
	C875.786499,199.559448 868.482910,194.730682 858.192749,194.471741 
	C848.164856,194.219406 839.725159,197.051392 832.972534,206.141266 
	C832.703064,202.156845 832.518616,199.429138 832.327271,196.600143 
	C823.504333,196.600143 814.989807,196.600143 806.284424,196.600143 
	C806.284424,208.862289 806.284424,220.681061 806.284424,233.499847 
M1289.415283,286.270935 
	C1292.844116,286.270935 1296.272827,286.270935 1300.514648,286.270935 
	C1287.624756,245.052780 1275.016235,204.734451 1262.351074,164.235016 
	C1252.070801,164.235016 1242.259399,164.382614 1232.456665,164.152542 
	C1229.159302,164.075165 1227.864502,165.283813 1226.932373,168.297623 
	C1222.143188,183.782196 1217.162964,199.207916 1212.199951,214.638245 
	C1206.381104,232.729279 1200.480591,250.794052 1194.681885,268.891479 
	C1192.901245,274.448914 1191.338745,280.076263 1189.498169,286.271332 
	C1197.554199,286.271332 1204.694702,286.285675 1211.835083,286.256653 
	C1212.978027,286.252014 1214.120239,286.053528 1215.516724,285.920441 
	C1217.682495,278.753113 1220.068481,271.705750 1221.866577,264.511444 
	C1222.646851,261.389343 1224.019409,260.530396 1226.988037,260.566498 
	C1237.143677,260.690033 1247.304077,260.726776 1257.457886,260.541290 
	C1260.319702,260.489044 1261.650024,261.415131 1262.344849,264.129578 
	C1263.901001,270.209625 1265.761841,276.211487 1267.335449,282.287476 
	C1268.056274,285.071289 1269.252441,286.508240 1272.458252,286.343842 
	C1277.772705,286.071289 1283.111328,286.270416 1289.415283,286.270935 
M985.696716,281.160431 
	C988.184204,282.785431 990.468506,284.999939 993.192505,285.938965 
	C1009.905029,291.700226 1026.681885,285.379364 1033.938843,267.525085 
	C1040.612305,251.106644 1040.822021,233.943604 1035.283203,217.237717 
	C1027.474976,193.686798 1002.352173,187.238068 984.154053,203.525330 
	C983.880554,203.770081 983.260071,203.627136 982.399963,203.698395 
	C982.304138,201.935638 982.415222,200.258423 982.050354,198.692032 
	C981.838135,197.780502 980.877014,196.352081 980.228394,196.338715 
	C972.330261,196.175964 964.427612,196.233002 956.602295,196.233002 
	C956.602295,236.719070 956.602295,276.428101 956.602295,316.216736 
	C965.579895,316.216736 974.254639,316.216736 983.209412,316.216736 
	C983.209412,314.102386 983.209351,312.457458 983.209473,310.812561 
	C983.210205,301.657135 983.154114,292.500793 983.296204,283.347534 
	C983.310974,282.396729 984.502014,281.464203 985.696716,281.160431 
M1469.165649,277.321167 
	C1469.161743,279.320801 1468.864380,281.382172 1469.266968,283.296356 
	C1469.500122,284.404480 1470.838135,286.100952 1471.716919,286.124573 
	C1479.830078,286.342621 1487.951660,286.253235 1496.507080,286.253235 
	C1496.507080,283.787109 1496.506592,281.986206 1496.507080,280.185303 
	C1496.511475,265.020538 1496.447876,249.855209 1496.577026,234.691513 
	C1496.603638,231.570740 1497.045654,228.376114 1497.835938,225.356842 
	C1499.116821,220.463272 1505.795044,216.368500 1511.097778,216.825775 
	C1515.765259,217.228271 1518.777832,220.342072 1519.810181,226.224258 
	C1520.209595,228.500290 1520.176636,230.868576 1520.180298,233.195099 
	C1520.207764,250.680710 1520.195190,268.166382 1520.195190,285.798401 
	C1529.519043,285.798401 1538.526245,285.798401 1547.639282,285.798401 
	C1547.639282,263.834595 1548.078491,242.337204 1547.520386,220.865738 
	C1546.916382,197.626373 1527.316772,190.761780 1509.983154,196.178360 
	C1505.358276,197.623550 1501.393921,201.182632 1496.609863,204.084457 
	C1496.609863,191.072922 1496.609863,177.916046 1496.609863,164.230438 
	C1488.901123,164.230438 1481.927612,164.471771 1474.981079,164.143509 
	C1470.534424,163.933365 1469.006836,165.039856 1469.038452,169.883163 
	C1469.270142,205.377197 1469.165405,240.873428 1469.165649,277.321167 
M1136.927856,267.062195 
	C1128.439331,263.059967 1127.070801,255.728287 1127.632935,246.756622 
	C1146.787354,246.756622 1165.835571,246.756622 1185.521484,246.756622 
	C1185.053345,241.609894 1184.776978,237.175125 1184.229370,232.774078 
	C1180.310059,201.274094 1152.145386,187.828629 1126.100220,197.263901 
	C1096.778320,207.886230 1092.535889,245.181259 1104.137329,266.340576 
	C1115.438232,286.951965 1138.864746,292.422516 1160.423950,284.923553 
	C1173.361450,280.423523 1180.117065,270.139771 1184.689575,256.803833 
	C1176.712036,256.248474 1169.480469,255.620880 1162.235840,255.365814 
	C1161.060913,255.324463 1159.231812,256.668884 1158.715088,257.824402 
	C1154.203857,267.913666 1148.488525,270.572357 1136.927856,267.062195 
M1375.734009,216.102768 
	C1368.565918,228.305756 1368.131226,241.704895 1370.948975,254.793900 
	C1378.119019,288.099091 1413.789795,295.133911 1436.624756,281.956879 
	C1447.688721,275.572418 1453.874390,265.624878 1454.263916,251.913910 
	C1447.621948,251.513931 1441.481201,251.281128 1435.369141,250.729294 
	C1431.082764,250.342285 1428.377686,250.839706 1427.355835,256.104950 
	C1426.214722,261.985046 1420.456055,265.758240 1414.903198,265.812561 
	C1409.341064,265.866974 1403.599854,262.447845 1402.437866,256.414124 
	C1401.015137,249.027649 1400.832886,241.316925 1400.939941,233.758118 
	C1400.991333,230.126282 1402.399780,226.230820 1404.154907,222.972580 
	C1406.746094,218.162399 1411.462769,216.401474 1416.852295,216.890198 
	C1422.014404,217.358307 1426.569336,219.513504 1427.554077,224.888885 
	C1428.462769,229.847351 1430.985352,230.442932 1435.148438,230.097946 
	C1441.497925,229.571732 1447.879761,229.434921 1456.116943,229.044083 
	C1453.298950,222.085556 1451.906616,216.161087 1448.771240,211.379578 
	C1439.990479,197.988617 1426.731689,193.644394 1411.246582,194.555298 
	C1395.870972,195.459732 1383.992065,202.073059 1375.734009,216.102768 
M1072.450806,164.230225 
	C1066.699829,164.230225 1060.948730,164.230225 1055.227539,164.230225 
	C1055.227539,205.315048 1055.227539,245.561600 1055.227539,285.952271 
	C1064.431396,285.952271 1073.357910,285.952271 1082.282349,285.952271 
	C1082.282349,245.274933 1082.282349,204.923645 1082.282349,164.230240 
	C1079.061157,164.230240 1076.244019,164.230240 1072.450806,164.230225 
M1346.251099,196.631393 
	C1342.960083,199.492950 1339.669067,202.354492 1336.625854,205.000641 
	C1336.511841,202.724518 1336.357666,199.647324 1336.197144,196.445068 
	C1327.746338,196.445068 1319.679932,196.445068 1311.407837,196.445068 
	C1311.407837,226.426926 1311.407837,256.119720 1311.407837,286.272308 
	C1318.777344,286.272308 1325.921143,286.043121 1333.040405,286.361511 
	C1337.066895,286.541595 1338.076538,285.209839 1338.074829,281.288391 
	C1338.069214,267.486511 1338.243164,253.675339 1338.804565,239.886246 
	C1339.099976,232.630219 1344.442993,222.315781 1353.790405,221.994675 
	C1355.886841,221.922653 1357.956543,221.072067 1360.006958,220.587387 
	C1360.006958,211.947739 1360.006958,203.414032 1360.006958,193.813828 
	C1355.231812,194.720978 1351.078613,195.509949 1346.251099,196.631393 
M772.492371,286.277527 
	C776.772400,286.277527 781.052368,286.277527 785.267944,286.277527 
	C785.267944,255.857986 785.267944,226.161926 785.267944,196.499054 
	C775.979553,196.499054 767.082336,196.499054 758.210327,196.499054 
	C758.210327,226.540192 758.210327,256.233368 758.210327,286.277435 
	C762.885803,286.277435 767.197205,286.277435 772.492371,286.277527 
M782.767578,162.813065 
	C774.519592,162.813065 766.271606,162.813065 758.195129,162.813065 
	C758.195129,172.086258 758.195129,180.501923 758.195129,188.921539 
	C767.480347,188.921539 776.405457,188.921539 785.656189,188.921539 
	C785.656189,180.917801 785.725098,173.268585 785.567322,165.624054 
	C785.548035,164.688980 784.313232,163.779007 782.767578,162.813065 
z"/>
<path fill="#F9F9F9" opacity="1.000000" stroke="none" 
	d="
M587.050354,354.548706 
	C586.032532,354.538757 585.014709,354.528839 583.442505,354.139343 
	C569.853027,351.257019 557.080750,347.988037 545.550232,341.052002 
	C545.177002,340.827484 544.586365,340.964325 544.097107,340.932739 
	C544.097107,340.932709 543.643799,340.761963 543.400635,340.326172 
	C540.616455,338.119812 538.025757,336.416046 535.544006,334.566071 
	C528.099060,329.016266 520.696655,323.409363 513.277649,317.824768 
	C513.277649,317.824768 513.183838,317.846008 513.209106,317.440430 
	C511.413971,314.605225 509.593506,312.175598 507.773010,309.745972 
	C507.274414,309.040863 506.775818,308.335754 506.446167,307.069336 
	C504.991638,303.333496 503.368164,300.158905 501.744690,296.984314 
	C502.018097,294.762207 502.291504,292.540070 503.258942,290.283051 
	C510.810699,296.671722 517.346313,303.485962 524.582153,309.450897 
	C555.114990,334.620880 590.280334,342.630981 628.334473,333.587646 
	C660.178955,326.019958 681.623962,305.816559 688.728638,272.985535 
	C690.878784,263.049530 690.543945,252.537903 690.869141,242.274796 
	C690.940125,240.035553 691.376343,236.153763 686.845886,236.192749 
	C669.533142,236.341766 652.219910,236.433121 634.458191,236.428986 
	C613.224304,236.284851 592.438293,236.177505 571.655029,236.363693 
	C569.727478,236.380951 567.298645,237.817261 565.982483,239.350174 
	C557.663879,249.038345 549.692017,259.024567 541.354126,268.695496 
	C539.782288,270.518585 537.079224,271.366333 534.549255,272.466064 
	C526.963013,272.182037 519.725647,272.096039 512.488281,272.010071 
	C514.484924,269.194855 516.306580,266.233612 518.511597,263.592377 
	C524.790039,256.071869 531.242981,248.697281 537.578979,241.224411 
	C538.586609,240.036026 539.344971,238.636322 540.886292,236.339050 
	C525.928162,236.339050 512.070007,236.339050 497.484589,236.339050 
	C499.499146,228.374054 501.305145,221.233582 503.322540,213.257278 
	C487.723206,213.257278 472.533783,213.257278 456.542938,213.257278 
	C458.769440,203.847092 460.726685,195.344116 462.799774,186.869476 
	C465.596924,175.434906 468.651245,164.059982 471.235931,152.578583 
	C472.088165,148.792831 473.544739,147.175751 477.543121,147.476349 
	C481.939209,147.806870 486.379395,147.551682 491.284668,147.551682 
	C488.502045,159.604538 485.944489,170.682617 483.262451,182.299835 
	C491.786926,182.299835 499.763123,182.299835 508.655548,182.299835 
	C506.616211,178.256607 505.163696,174.623672 503.083466,171.395157 
	C497.094788,162.100662 494.284454,151.713959 492.544891,141.030945 
	C491.224762,132.923599 488.956482,124.457657 490.071106,116.569702 
	C492.686737,98.059120 495.937653,79.626183 507.500488,63.666908 
	C516.553833,51.171207 528.735840,44.291019 542.438599,38.573158 
	C559.506714,31.451019 577.296631,32.072517 594.968445,32.872860 
	C614.454346,33.755367 633.693848,37.812744 651.542358,45.566513 
	C662.874939,50.489601 673.176636,58.119366 683.256958,65.472527 
	C689.820190,70.260178 691.108704,79.406670 687.198364,84.422340 
	C685.415222,82.553543 684.234375,80.700356 682.667664,79.269661 
	C667.725159,65.624222 650.114258,57.028130 630.451416,52.873440 
	C611.707336,48.912880 592.835632,48.627098 573.970886,52.646107 
	C559.640869,55.699013 546.117859,60.948059 534.559082,69.809471 
	C510.169983,88.507248 500.503082,120.860687 509.864868,150.367142 
	C511.258759,154.760468 513.767944,158.799927 515.761169,163.003082 
	C517.435242,159.939926 517.940613,157.332169 518.555725,154.750549 
	C520.258911,147.601929 520.276978,147.605637 527.595154,147.605301 
	C538.689819,147.604782 549.784424,147.605179 562.193176,147.605179 
	C555.688354,139.451035 549.950256,132.258087 543.451599,124.111763 
	C551.086121,124.111763 556.869873,124.111763 562.653564,124.111755 
	C568.775635,131.304306 574.813293,138.572327 581.104004,145.614212 
	C582.137817,146.771454 584.275879,147.448700 585.917175,147.474335 
	C596.413696,147.638245 606.917236,147.689499 617.410156,147.434143 
	C619.249268,147.389389 621.512268,146.138763 622.785278,144.728210 
	C627.895386,139.065979 632.852783,133.245880 637.533081,127.224884 
	C639.598083,124.568321 641.771057,123.364380 645.104370,123.544464 
	C649.215820,123.766586 653.348450,123.597549 657.471924,123.597549 
	C657.755066,124.001297 658.038208,124.405052 658.321350,124.808800 
	C652.710144,131.979431 647.098938,139.150070 640.898315,147.073959 
	C642.966858,147.282593 644.304138,147.530518 645.642151,147.534576 
	C656.474426,147.567474 667.307739,147.630234 678.138733,147.506226 
	C681.106506,147.472260 682.446228,148.285522 683.150269,151.447922 
	C685.201355,160.660233 687.637268,169.793503 690.207642,178.876999 
	C690.631531,180.374725 692.451111,182.521103 693.699524,182.572464 
	C701.813965,182.906281 709.948669,182.743820 719.196594,182.743820 
	C716.518982,170.871994 713.998657,159.697723 711.279907,147.643326 
	C716.989563,147.643326 722.246704,147.466217 727.469543,147.809464 
	C728.390625,147.869995 729.587158,149.993713 729.949280,151.353043 
	C734.428040,168.165009 738.785583,185.009323 743.148132,201.852097 
	C744.016663,205.205078 744.774780,208.586670 745.822205,212.947357 
	C730.159424,212.947357 715.013733,212.947357 699.105774,212.947357 
	C700.271362,218.103241 701.141663,222.249832 702.150574,226.362396 
	C705.898010,241.638641 706.300598,257.229004 705.268494,272.731842 
	C703.606812,297.691620 694.004456,319.159302 674.062866,335.826569 
	C672.937988,336.525482 672.389465,337.087555 671.840942,337.649658 
	C670.989258,338.259186 670.137573,338.868683 668.686035,339.658966 
	C665.579529,341.453278 663.236511,343.442474 660.539001,344.618134 
	C645.352966,351.236694 629.718933,355.970734 612.866516,355.319580 
	C609.925537,355.205933 606.961609,355.683533 604.008301,355.888092 
	C602.657227,355.859497 601.306091,355.830872 599.406738,355.393829 
	C594.922485,354.839813 590.986389,354.694275 587.050354,354.548706 
M664.145020,183.156647 
	C664.145020,177.591293 664.145020,172.025940 664.145020,166.465088 
	C654.264587,166.465088 645.201843,166.465088 636.039062,166.465088 
	C636.039062,172.786896 636.039062,178.746506 635.804382,185.650284 
	C635.804382,188.540283 635.804382,191.430283 635.804382,194.216019 
	C645.631958,194.216019 654.757568,194.216019 664.307922,194.216019 
	C664.134949,190.559921 663.981018,187.306366 664.145020,183.156647 
M538.427551,185.733429 
	C538.427551,188.626205 538.427551,191.518967 538.427551,194.334503 
	C548.268860,194.334503 557.333801,194.334503 566.609436,194.334503 
	C566.609436,190.959274 566.609436,187.855850 566.837036,183.874069 
	C566.837036,178.114899 566.837036,172.355743 566.837036,166.554596 
	C557.028381,166.554596 547.845703,166.554596 538.702698,166.554596 
	C538.702698,172.947342 538.702698,178.891708 538.427551,185.733429 
z"/>
<path fill="#9D0404" opacity="1.000000" stroke="none" 
	d="
M634.906860,236.546021 
	C652.219910,236.433121 669.533142,236.341766 686.845886,236.192749 
	C691.376343,236.153763 690.940125,240.035553 690.869141,242.274796 
	C690.543945,252.537903 690.878784,263.049530 688.728638,272.985535 
	C681.623962,305.816559 660.178955,326.019958 628.334473,333.587646 
	C590.280334,342.630981 555.114990,334.620880 524.582153,309.450897 
	C517.346313,303.485962 510.810699,296.671722 503.665527,290.125183 
	C503.257690,282.691742 507.878662,277.635590 512.152344,272.132355 
	C519.725647,272.096039 526.963013,272.182037 534.691284,272.799133 
	C535.379578,273.596008 535.525330,273.933990 535.781677,274.117310 
	C558.153503,290.115479 582.818176,295.885590 609.755493,289.818604 
	C622.457703,286.957794 633.162231,280.467957 639.791504,268.672882 
	C643.467346,262.132629 645.871582,255.112427 642.586243,247.838318 
	C640.740479,243.751709 637.512207,240.289520 634.906860,236.546021 
z"/>
<path fill="#9D0303" opacity="1.000000" stroke="none" 
	d="
M562.893188,123.813194 
	C556.869873,124.111763 551.086121,124.111763 543.451599,124.111763 
	C549.950256,132.258087 555.688354,139.451035 562.193176,147.605179 
	C549.784424,147.605179 538.689819,147.604782 527.595154,147.605301 
	C520.276978,147.605637 520.258911,147.601929 518.555725,154.750549 
	C517.940613,157.332169 517.435242,159.939926 515.761169,163.003082 
	C513.767944,158.799927 511.258759,154.760468 509.864868,150.367142 
	C500.503082,120.860687 510.169983,88.507248 534.559082,69.809471 
	C546.117859,60.948059 559.640869,55.699013 573.970886,52.646107 
	C592.835632,48.627098 611.707336,48.912880 630.451416,52.873440 
	C650.114258,57.028130 667.725159,65.624222 682.667664,79.269661 
	C684.234375,80.700356 685.415222,82.553543 686.848877,84.530342 
	C682.831421,92.882622 679.275208,101.257309 674.442993,108.816254 
	C671.661438,113.167526 667.688110,112.675842 662.456970,109.599197 
	C654.731262,105.055443 647.325806,99.700523 639.118164,96.296524 
	C620.136841,88.424316 600.857178,88.476357 582.343933,98.028542 
	C572.085815,103.321396 565.918030,112.289253 562.893188,123.813194 
z"/>
<path fill="#F7F7F7" opacity="1.000000" stroke="none" 
	d="
M806.284424,232.999847 
	C806.284424,220.681061 806.284424,208.862289 806.284424,196.600143 
	C814.989807,196.600143 823.504333,196.600143 832.327271,196.600143 
	C832.518616,199.429138 832.703064,202.156845 832.972534,206.141266 
	C839.725159,197.051392 848.164856,194.219406 858.192749,194.471741 
	C868.482910,194.730682 875.786499,199.559448 881.533752,208.480911 
	C882.847534,206.990036 884.017944,205.916779 884.885437,204.638077 
	C893.691101,191.658401 917.317932,191.802490 927.541260,200.886276 
	C932.995789,205.732742 935.209839,212.027374 935.330627,218.637756 
	C935.737915,240.933716 935.485657,263.241730 935.485657,285.908691 
	C926.461060,285.908691 917.544922,285.908691 907.954651,285.908691 
	C907.954651,284.087830 907.955872,282.327026 907.954468,280.566223 
	C907.940918,263.409851 907.963562,246.253342 907.896851,229.097168 
	C907.865234,220.972565 904.617188,217.033463 898.013062,216.796127 
	C891.070129,216.546600 886.016968,220.628830 885.581604,228.055450 
	C884.842407,240.664978 884.708618,253.312210 884.437805,265.946106 
	C884.298767,272.432098 884.413452,278.923584 884.413452,286.207123 
	C875.804565,286.207123 867.397766,286.318878 859.005188,286.024139 
	C858.216614,285.996429 856.890869,283.414093 856.874695,282.005707 
	C856.714478,268.015900 856.801819,254.023468 856.762939,240.031937 
	C856.751404,235.869888 856.639160,231.704651 856.438416,227.547394 
	C856.102112,220.584320 852.872192,217.116104 846.588013,216.792801 
	C839.886230,216.448013 834.813049,220.350922 834.120239,226.937027 
	C833.512085,232.718613 833.269653,238.557816 833.216370,244.374786 
	C833.091431,258.024811 833.176453,271.676758 833.176453,285.799927 
	C824.271484,285.799927 815.576355,285.799927 806.284424,285.799927 
	C806.284424,268.355499 806.284424,250.927673 806.284424,232.999847 
z"/>
<path fill="#F8F8F8" opacity="1.000000" stroke="none" 
	d="
M1288.927490,286.270874 
	C1283.111328,286.270416 1277.772705,286.071289 1272.458252,286.343842 
	C1269.252441,286.508240 1268.056274,285.071289 1267.335449,282.287476 
	C1265.761841,276.211487 1263.901001,270.209625 1262.344849,264.129578 
	C1261.650024,261.415131 1260.319702,260.489044 1257.457886,260.541290 
	C1247.304077,260.726776 1237.143677,260.690033 1226.988037,260.566498 
	C1224.019409,260.530396 1222.646851,261.389343 1221.866577,264.511444 
	C1220.068481,271.705750 1217.682495,278.753113 1215.516724,285.920441 
	C1214.120239,286.053528 1212.978027,286.252014 1211.835083,286.256653 
	C1204.694702,286.285675 1197.554199,286.271332 1189.498169,286.271332 
	C1191.338745,280.076263 1192.901245,274.448914 1194.681885,268.891479 
	C1200.480591,250.794052 1206.381104,232.729279 1212.199951,214.638245 
	C1217.162964,199.207916 1222.143188,183.782196 1226.932373,168.297623 
	C1227.864502,165.283813 1229.159302,164.075165 1232.456665,164.152542 
	C1242.259399,164.382614 1252.070801,164.235016 1262.351074,164.235016 
	C1275.016235,204.734451 1287.624756,245.052780 1300.514648,286.270935 
	C1296.272827,286.270935 1292.844116,286.270935 1288.927490,286.270874 
M1246.025757,210.435089 
	C1244.905151,207.507584 1243.784424,204.580078 1242.663696,201.652573 
	C1242.147705,201.680191 1241.631714,201.707825 1241.115723,201.735443 
	C1237.545898,213.779144 1233.976074,225.822830 1230.325928,238.137512 
	C1238.617554,238.137512 1246.127197,238.137512 1253.924927,238.137512 
	C1253.705933,236.950851 1253.631958,236.149384 1253.406982,235.392807 
	C1251.009644,227.330902 1248.588379,219.276138 1246.025757,210.435089 
z"/>
<path fill="#F6F6F6" opacity="1.000000" stroke="none" 
	d="
M985.421997,280.841797 
	C984.502014,281.464203 983.310974,282.396729 983.296204,283.347534 
	C983.154114,292.500793 983.210205,301.657135 983.209473,310.812561 
	C983.209351,312.457458 983.209412,314.102386 983.209412,316.216736 
	C974.254639,316.216736 965.579895,316.216736 956.602295,316.216736 
	C956.602295,276.428101 956.602295,236.719070 956.602295,196.233002 
	C964.427612,196.233002 972.330261,196.175964 980.228394,196.338715 
	C980.877014,196.352081 981.838135,197.780502 982.050354,198.692032 
	C982.415222,200.258423 982.304138,201.935638 982.399963,203.698395 
	C983.260071,203.627136 983.880554,203.770081 984.154053,203.525330 
	C1002.352173,187.238068 1027.474976,193.686798 1035.283203,217.237717 
	C1040.822021,233.943604 1040.612305,251.106644 1033.938843,267.525085 
	C1026.681885,285.379364 1009.905029,291.700226 993.192505,285.938965 
	C990.468506,284.999939 988.184204,282.785431 985.421997,280.841797 
M1009.885254,236.676971 
	C1009.698669,234.019165 1009.716797,231.327408 1009.283020,228.710587 
	C1008.377380,223.247330 1007.144897,217.705307 1001.636169,214.948944 
	C994.263611,211.260101 984.933472,216.603027 984.228333,225.650757 
	C983.417969,236.049210 983.676636,246.564301 984.044250,257.008545 
	C984.260437,263.151031 990.439636,268.607727 996.241089,268.879333 
	C1001.002869,269.102295 1007.129211,264.201508 1008.036133,258.434906 
	C1009.115540,251.570847 1009.327454,244.570389 1009.885254,236.676971 
z"/>
<path fill="#F6F6F6" opacity="1.000000" stroke="none" 
	d="
M1469.166260,276.845062 
	C1469.165405,240.873428 1469.270142,205.377197 1469.038452,169.883163 
	C1469.006836,165.039856 1470.534424,163.933365 1474.981079,164.143509 
	C1481.927612,164.471771 1488.901123,164.230438 1496.609863,164.230438 
	C1496.609863,177.916046 1496.609863,191.072922 1496.609863,204.084457 
	C1501.393921,201.182632 1505.358276,197.623550 1509.983154,196.178360 
	C1527.316772,190.761780 1546.916382,197.626373 1547.520386,220.865738 
	C1548.078491,242.337204 1547.639282,263.834595 1547.639282,285.798401 
	C1538.526245,285.798401 1529.519043,285.798401 1520.195190,285.798401 
	C1520.195190,268.166382 1520.207764,250.680710 1520.180298,233.195099 
	C1520.176636,230.868576 1520.209595,228.500290 1519.810181,226.224258 
	C1518.777832,220.342072 1515.765259,217.228271 1511.097778,216.825775 
	C1505.795044,216.368500 1499.116821,220.463272 1497.835938,225.356842 
	C1497.045654,228.376114 1496.603638,231.570740 1496.577026,234.691513 
	C1496.447876,249.855209 1496.511475,265.020538 1496.507080,280.185303 
	C1496.506592,281.986206 1496.507080,283.787109 1496.507080,286.253235 
	C1487.951660,286.253235 1479.830078,286.342621 1471.716919,286.124573 
	C1470.838135,286.100952 1469.500122,284.404480 1469.266968,283.296356 
	C1468.864380,281.382172 1469.161743,279.320801 1469.166260,276.845062 
z"/>
<path fill="#F7F7F7" opacity="1.000000" stroke="none" 
	d="
M1137.297974,267.183289 
	C1148.488525,270.572357 1154.203857,267.913666 1158.715088,257.824402 
	C1159.231812,256.668884 1161.060913,255.324463 1162.235840,255.365814 
	C1169.480469,255.620880 1176.712036,256.248474 1184.689575,256.803833 
	C1180.117065,270.139771 1173.361450,280.423523 1160.423950,284.923553 
	C1138.864746,292.422516 1115.438232,286.951965 1104.137329,266.340576 
	C1092.535889,245.181259 1096.778320,207.886230 1126.100220,197.263901 
	C1152.145386,187.828629 1180.310059,201.274094 1184.229370,232.774078 
	C1184.776978,237.175125 1185.053345,241.609894 1185.521484,246.756622 
	C1165.835571,246.756622 1146.787354,246.756622 1127.632935,246.756622 
	C1127.070801,255.728287 1128.439331,263.059967 1137.297974,267.183289 
M1127.850464,228.793198 
	C1128.562012,229.568192 1129.262573,231.005844 1129.986694,231.017731 
	C1139.262817,231.169922 1148.542358,231.118179 1159.188965,231.118179 
	C1157.123657,226.270294 1156.051514,221.811203 1153.566284,218.373749 
	C1149.804932,213.171204 1144.041748,212.961090 1138.214966,214.639130 
	C1131.576294,216.551025 1129.049316,221.684052 1127.850464,228.793198 
z"/>
<path fill="#F7F7F7" opacity="1.000000" stroke="none" 
	d="
M1375.912964,215.782623 
	C1383.992065,202.073059 1395.870972,195.459732 1411.246582,194.555298 
	C1426.731689,193.644394 1439.990479,197.988617 1448.771240,211.379578 
	C1451.906616,216.161087 1453.298950,222.085556 1456.116943,229.044083 
	C1447.879761,229.434921 1441.497925,229.571732 1435.148438,230.097946 
	C1430.985352,230.442932 1428.462769,229.847351 1427.554077,224.888885 
	C1426.569336,219.513504 1422.014404,217.358307 1416.852295,216.890198 
	C1411.462769,216.401474 1406.746094,218.162399 1404.154907,222.972580 
	C1402.399780,226.230820 1400.991333,230.126282 1400.939941,233.758118 
	C1400.832886,241.316925 1401.015137,249.027649 1402.437866,256.414124 
	C1403.599854,262.447845 1409.341064,265.866974 1414.903198,265.812561 
	C1420.456055,265.758240 1426.214722,261.985046 1427.355835,256.104950 
	C1428.377686,250.839706 1431.082764,250.342285 1435.369141,250.729294 
	C1441.481201,251.281128 1447.621948,251.513931 1454.263916,251.913910 
	C1453.874390,265.624878 1447.688721,275.572418 1436.624756,281.956879 
	C1413.789795,295.133911 1378.119019,288.099091 1370.948975,254.793900 
	C1368.131226,241.704895 1368.565918,228.305756 1375.912964,215.782623 
z"/>
<path fill="#F6F6F6" opacity="1.000000" stroke="none" 
	d="
M1072.938721,164.230225 
	C1076.244019,164.230240 1079.061157,164.230240 1082.282349,164.230240 
	C1082.282349,204.923645 1082.282349,245.274933 1082.282349,285.952271 
	C1073.357910,285.952271 1064.431396,285.952271 1055.227539,285.952271 
	C1055.227539,245.561600 1055.227539,205.315048 1055.227539,164.230225 
	C1060.948730,164.230225 1066.699829,164.230225 1072.938721,164.230225 
z"/>
<path fill="#F8F8F8" opacity="1.000000" stroke="none" 
	d="
M1346.588379,196.465149 
	C1351.078613,195.509949 1355.231812,194.720978 1360.006958,193.813828 
	C1360.006958,203.414032 1360.006958,211.947739 1360.006958,220.587387 
	C1357.956543,221.072067 1355.886841,221.922653 1353.790405,221.994675 
	C1344.442993,222.315781 1339.099976,232.630219 1338.804565,239.886246 
	C1338.243164,253.675339 1338.069214,267.486511 1338.074829,281.288391 
	C1338.076538,285.209839 1337.066895,286.541595 1333.040405,286.361511 
	C1325.921143,286.043121 1318.777344,286.272308 1311.407837,286.272308 
	C1311.407837,256.119720 1311.407837,226.426926 1311.407837,196.445068 
	C1319.679932,196.445068 1327.746338,196.445068 1336.197144,196.445068 
	C1336.357666,199.647324 1336.511841,202.724518 1336.625854,205.000641 
	C1339.669067,202.354492 1342.960083,199.492950 1346.588379,196.465149 
z"/>
<path fill="#F6F6F6" opacity="1.000000" stroke="none" 
	d="
M772.000488,286.277466 
	C767.197205,286.277435 762.885803,286.277435 758.210327,286.277435 
	C758.210327,256.233368 758.210327,226.540192 758.210327,196.499054 
	C767.082336,196.499054 775.979553,196.499054 785.267944,196.499054 
	C785.267944,226.161926 785.267944,255.857986 785.267944,286.277527 
	C781.052368,286.277527 776.772400,286.277527 772.000488,286.277466 
z"/>
<path fill="#F5F5F5" opacity="1.000000" stroke="none" 
	d="
M783.204651,162.835236 
	C784.313232,163.779007 785.548035,164.688980 785.567322,165.624054 
	C785.725098,173.268585 785.656189,180.917801 785.656189,188.921539 
	C776.405457,188.921539 767.480347,188.921539 758.195129,188.921539 
	C758.195129,180.501923 758.195129,172.086258 758.195129,162.813065 
	C766.271606,162.813065 774.519592,162.813065 783.204651,162.835236 
z"/>
<path fill="#9D9D9D" opacity="1.000000" stroke="none" 
	d="
M604.381836,356.043213 
	C606.961609,355.683533 609.925537,355.205933 612.866516,355.319580 
	C629.718933,355.970734 645.352966,351.236694 660.539001,344.618134 
	C663.236511,343.442474 665.579529,341.453278 668.439819,339.859619 
	C663.698486,342.928162 658.804199,346.396881 653.470459,348.945892 
	C638.027771,356.326111 621.481995,357.039948 604.381836,356.043213 
z"/>
<path fill="#9D9D9D" opacity="1.000000" stroke="none" 
	d="
M544.155029,341.263977 
	C544.586365,340.964325 545.177002,340.827484 545.550232,341.052002 
	C557.080750,347.988037 569.853027,351.257019 583.068237,354.062012 
	C579.835754,353.957947 576.366028,353.816864 573.021240,353.096039 
	C562.787537,350.890686 552.804321,347.957886 544.155029,341.263977 
z"/>
<path fill="#9D9D9D" opacity="1.000000" stroke="none" 
	d="
M513.335083,318.162415 
	C520.696655,323.409363 528.099060,329.016266 535.544006,334.566071 
	C538.025757,336.416046 540.616455,338.119812 543.180725,340.224670 
	C532.154236,334.709625 521.431946,328.417725 513.335083,318.162415 
z"/>
<path fill="#9D9D9D" opacity="1.000000" stroke="none" 
	d="
M587.363037,354.801270 
	C590.986389,354.694275 594.922485,354.839813 599.005249,355.336273 
	C595.326538,355.476074 591.501099,355.264954 587.363037,354.801270 
z"/>
<path fill="#9D9D9D" opacity="1.000000" stroke="none" 
	d="
M501.559143,297.229858 
	C503.368164,300.158905 504.991638,303.333496 506.408203,306.742767 
	C504.592072,303.810120 502.982849,300.642792 501.559143,297.229858 
z"/>
<path fill="#9D9D9D" opacity="1.000000" stroke="none" 
	d="
M507.646912,310.063202 
	C509.593506,312.175598 511.413971,314.605225 513.199341,317.393372 
	C511.283173,315.294739 509.402008,312.837585 507.646912,310.063202 
z"/>
<path fill="#9D9D9D" opacity="1.000000" stroke="none" 
	d="
M672.156128,337.754944 
	C672.389465,337.087555 672.937988,336.525482 673.793701,336.023102 
	C673.557617,336.675262 673.014404,337.267761 672.156128,337.754944 
z"/>
<path fill="#020101" opacity="1.000000" stroke="none" 
	d="
M634.458191,236.428986 
	C637.512207,240.289520 640.740479,243.751709 642.586243,247.838318 
	C645.871582,255.112427 643.467346,262.132629 639.791504,268.672882 
	C633.162231,280.467957 622.457703,286.957794 609.755493,289.818604 
	C582.818176,295.885590 558.153503,290.115479 535.781677,274.117310 
	C535.525330,273.933990 535.379578,273.596008 535.040161,272.997192 
	C537.079224,271.366333 539.782288,270.518585 541.354126,268.695496 
	C549.692017,259.024567 557.663879,249.038345 565.982483,239.350174 
	C567.298645,237.817261 569.727478,236.380951 571.655029,236.363693 
	C592.438293,236.177505 613.224304,236.284851 634.458191,236.428986 
z"/>
<path fill="#9D0E0E" opacity="1.000000" stroke="none" 
	d="
M538.702698,184.836075 
	C538.702698,178.891708 538.702698,172.947342 538.702698,166.554596 
	C547.845703,166.554596 557.028381,166.554596 566.837036,166.554596 
	C566.837036,172.355743 566.837036,178.114899 566.284546,184.379852 
	C556.722290,184.869125 547.712524,184.852600 538.702698,184.836075 
z"/>
<path fill="#9B0808" opacity="1.000000" stroke="none" 
	d="
M636.039062,184.706116 
	C636.039062,178.746506 636.039062,172.786896 636.039062,166.465088 
	C645.201843,166.465088 654.264587,166.465088 664.145020,166.465088 
	C664.145020,172.025940 664.145020,177.591293 663.629578,183.796204 
	C654.089111,184.525879 645.064087,184.615997 636.039062,184.706116 
z"/>
<path fill="#151010" opacity="1.000000" stroke="none" 
	d="
M538.565125,185.284760 
	C547.712524,184.852600 556.722290,184.869125 566.170776,184.819031 
	C566.609436,187.855850 566.609436,190.959274 566.609436,194.334503 
	C557.333801,194.334503 548.268860,194.334503 538.427551,194.334503 
	C538.427551,191.518967 538.427551,188.626205 538.565125,185.284760 
z"/>
<path fill="#151010" opacity="1.000000" stroke="none" 
	d="
M635.921753,185.178192 
	C645.064087,184.615997 654.089111,184.525879 663.470581,184.244263 
	C663.981018,187.306366 664.134949,190.559921 664.307922,194.216019 
	C654.757568,194.216019 645.631958,194.216019 635.804382,194.216019 
	C635.804382,191.430283 635.804382,188.540283 635.921753,185.178192 
z"/>
<path fill="#0C0C0C" opacity="1.000000" stroke="none" 
	d="
M1246.099731,210.827240 
	C1248.588379,219.276138 1251.009644,227.330902 1253.406982,235.392807 
	C1253.631958,236.149384 1253.705933,236.950851 1253.924927,238.137512 
	C1246.127197,238.137512 1238.617554,238.137512 1230.325928,238.137512 
	C1233.976074,225.822830 1237.545898,213.779144 1241.115723,201.735443 
	C1241.631714,201.707825 1242.147705,201.680191 1242.663696,201.652573 
	C1243.784424,204.580078 1244.905151,207.507584 1246.099731,210.827240 
z"/>
<path fill="#0A0A0A" opacity="1.000000" stroke="none" 
	d="
M1009.900208,237.153000 
	C1009.327454,244.570389 1009.115540,251.570847 1008.036133,258.434906 
	C1007.129211,264.201508 1001.002869,269.102295 996.241089,268.879333 
	C990.439636,268.607727 984.260437,263.151031 984.044250,257.008545 
	C983.676636,246.564301 983.417969,236.049210 984.228333,225.650757 
	C984.933472,216.603027 994.263611,211.260101 1001.636169,214.948944 
	C1007.144897,217.705307 1008.377380,223.247330 1009.283020,228.710587 
	C1009.716797,231.327408 1009.698669,234.019165 1009.900208,237.153000 
z"/>
<path fill="#090909" opacity="1.000000" stroke="none" 
	d="
M1127.901611,228.348755 
	C1129.049316,221.684052 1131.576294,216.551025 1138.214966,214.639130 
	C1144.041748,212.961090 1149.804932,213.171204 1153.566284,218.373749 
	C1156.051514,221.811203 1157.123657,226.270294 1159.188965,231.118179 
	C1148.542358,231.118179 1139.262817,231.169922 1129.986694,231.017731 
	C1129.262573,231.005844 1128.562012,229.568192 1127.901611,228.348755 
z"/>
</svg>