<?xml version="1.0" encoding="UTF-8"?>
<svg xmlns="http://www.w3.org/2000/svg" xmlns:xlink="http://www.w3.org/1999/xlink" width="16px" height="16px" viewBox="0 0 16 16" version="1.1">
<g id="surface1">
<path style=" stroke:none;fill-rule:nonzero;fill:rgb(0%,0%,0%);fill-opacity:1;" d="M 9.5625 16.0625 C 6.375 16.0625 3.21875 16.0625 0.0625 16.0625 C 0.0625 10.730469 0.0625 5.394531 0.0625 0.0625 C 5.394531 0.0625 10.730469 0.0625 16.0625 0.0625 C 16.0625 5.394531 16.0625 10.730469 16.0625 16.0625 C 13.90625 16.0625 11.75 16.0625 9.5625 16.0625 M 6.453125 4.976562 C 6.644531 4.257812 7.144531 3.859375 7.847656 3.703125 C 8.609375 3.539062 9.332031 3.65625 10.007812 4.046875 C 10.214844 4.167969 10.410156 4.3125 10.617188 4.429688 C 10.824219 4.550781 11.015625 4.5 11.125 4.300781 C 11.289062 4 11.421875 3.683594 11.609375 3.363281 C 11.789062 3.046875 11.605469 2.769531 11.40625 2.621094 C 10.96875 2.289062 10.492188 1.984375 9.988281 1.761719 C 8.925781 1.296875 7.789062 1.191406 6.644531 1.269531 C 5.808594 1.328125 5.015625 1.59375 4.4375 2.234375 C 3.597656 3.164062 3.375 4.289062 3.503906 5.5 C 3.523438 5.671875 3.59375 5.839844 3.625 6.007812 C 3.71875 6.539062 3.988281 6.988281 4.28125 7.433594 C 3.917969 7.433594 3.550781 7.433594 3.152344 7.433594 C 3.261719 6.949219 3.367188 6.484375 3.472656 6.019531 C 3.207031 6.019531 2.972656 6.019531 2.730469 6.019531 C 2.511719 6.90625 2.296875 7.777344 2.074219 8.691406 C 2.738281 8.691406 3.367188 8.691406 4 8.691406 C 3.921875 9.019531 3.851562 9.3125 3.773438 9.640625 C 4.398438 9.640625 4.972656 9.640625 5.585938 9.640625 C 5.460938 9.789062 5.363281 9.90625 5.265625 10.027344 C 4.972656 10.386719 4.683594 10.75 4.351562 11.136719 C 4.238281 11.378906 4.125 11.621094 3.964844 11.886719 C 3.917969 12.449219 4.234375 12.871094 4.605469 13.195312 C 5.230469 13.738281 5.921875 14.21875 6.757812 14.394531 C 7.109375 14.472656 7.472656 14.511719 7.835938 14.542969 C 8.945312 14.636719 10.011719 14.542969 10.933594 13.8125 C 11.582031 13.300781 12.023438 12.660156 12.179688 11.851562 C 12.269531 11.398438 12.316406 10.929688 12.300781 10.46875 C 12.28125 9.875 12.175781 9.289062 12.105469 8.675781 C 12.707031 8.675781 13.328125 8.675781 13.988281 8.675781 C 13.75 7.769531 13.523438 6.890625 13.296875 6.011719 C 13.050781 6.011719 12.824219 6.011719 12.589844 6.011719 C 12.695312 6.492188 12.800781 6.957031 12.910156 7.449219 C 12.546875 7.449219 12.234375 7.460938 11.925781 7.4375 C 11.839844 7.433594 11.714844 7.328125 11.6875 7.246094 C 11.558594 6.835938 11.460938 6.417969 11.347656 5.980469 C 10.769531 5.980469 10.214844 5.980469 9.632812 5.980469 C 9.894531 5.648438 10.128906 5.351562 10.378906 5.035156 C 9.730469 4.96875 9.652344 4.957031 9.535156 5.160156 C 9.121094 5.894531 8.5 6.140625 7.695312 6 C 7.613281 5.988281 7.527344 6.015625 7.449219 5.996094 C 7.347656 5.96875 7.226562 5.9375 7.160156 5.867188 C 6.90625 5.59375 6.667969 5.300781 6.453125 4.976562 Z M 6.453125 4.976562 "/>
<path style=" stroke:none;fill-rule:nonzero;fill:rgb(98.431373%,98.431373%,98.431373%);fill-opacity:1;" d="M 4.390625 11.113281 C 4.683594 10.75 4.972656 10.386719 5.265625 10.027344 C 5.363281 9.90625 5.460938 9.789062 5.585938 9.640625 C 4.972656 9.640625 4.398438 9.640625 3.773438 9.640625 C 3.851562 9.3125 3.921875 9.019531 4 8.691406 C 3.367188 8.691406 2.738281 8.691406 2.074219 8.691406 C 2.296875 7.777344 2.511719 6.90625 2.730469 6.019531 C 2.972656 6.019531 3.207031 6.019531 3.472656 6.019531 C 3.367188 6.484375 3.261719 6.949219 3.152344 7.433594 C 3.550781 7.433594 3.917969 7.433594 4.28125 7.433594 C 3.988281 6.988281 3.71875 6.539062 3.625 6.007812 C 3.59375 5.839844 3.523438 5.671875 3.503906 5.5 C 3.375 4.289062 3.597656 3.164062 4.4375 2.234375 C 5.015625 1.59375 5.808594 1.328125 6.644531 1.269531 C 7.789062 1.191406 8.925781 1.296875 9.988281 1.761719 C 10.492188 1.984375 10.96875 2.289062 11.40625 2.621094 C 11.605469 2.769531 11.789062 3.046875 11.582031 3.347656 C 11.421875 3.207031 11.300781 3.058594 11.148438 2.953125 C 9.691406 1.882812 8.085938 1.695312 6.386719 2.203125 C 5.382812 2.503906 4.632812 3.140625 4.28125 4.15625 C 3.988281 5.007812 4.03125 5.839844 4.535156 6.675781 C 4.605469 6.417969 4.65625 6.214844 4.71875 5.988281 C 5.285156 5.988281 5.839844 5.988281 6.4375 5.988281 C 6.171875 5.652344 5.933594 5.351562 5.667969 5.019531 C 5.96875 5.019531 6.199219 5.019531 6.425781 5.019531 C 6.667969 5.300781 6.90625 5.59375 7.160156 5.867188 C 7.226562 5.9375 7.347656 5.96875 7.449219 5.996094 C 7.527344 6.015625 7.613281 5.988281 7.695312 6 C 8.5 6.140625 9.121094 5.894531 9.535156 5.160156 C 9.652344 4.957031 9.730469 4.96875 10.378906 5.035156 C 10.128906 5.351562 9.894531 5.648438 9.632812 5.980469 C 10.214844 5.980469 10.769531 5.980469 11.347656 5.980469 C 11.460938 6.417969 11.558594 6.835938 11.6875 7.246094 C 11.714844 7.328125 11.839844 7.433594 11.925781 7.4375 C 12.234375 7.460938 12.546875 7.449219 12.910156 7.449219 C 12.800781 6.957031 12.695312 6.492188 12.589844 6.011719 C 12.824219 6.011719 13.050781 6.011719 13.296875 6.011719 C 13.523438 6.890625 13.75 7.769531 13.988281 8.675781 C 13.328125 8.675781 12.707031 8.675781 12.105469 8.675781 C 12.175781 9.289062 12.28125 9.875 12.300781 10.46875 C 12.316406 10.929688 12.269531 11.398438 12.179688 11.851562 C 12.023438 12.660156 11.582031 13.300781 10.933594 13.8125 C 10.011719 14.542969 8.945312 14.636719 7.835938 14.542969 C 7.472656 14.511719 7.109375 14.472656 6.757812 14.394531 C 5.921875 14.21875 5.230469 13.738281 4.605469 13.195312 C 4.234375 12.871094 3.917969 12.449219 4.003906 11.886719 C 4.480469 12.269531 4.875 12.71875 5.363281 13.019531 C 6.902344 13.972656 8.523438 14.125 10.152344 13.25 C 11.550781 12.5 11.976562 10.710938 11.660156 9.636719 C 10.902344 9.636719 10.144531 9.636719 9.355469 9.628906 C 8.527344 9.625 7.726562 9.617188 6.925781 9.632812 C 6.785156 9.636719 6.613281 9.722656 6.515625 9.828125 C 6.1875 10.1875 5.890625 10.578125 5.566406 10.941406 C 5.488281 11.03125 5.351562 11.066406 5.210938 11.121094 C 4.917969 11.113281 4.65625 11.113281 4.390625 11.113281 M 9.441406 7.554688 C 9.441406 7.675781 9.441406 7.796875 9.441406 7.933594 C 9.664062 7.933594 9.859375 7.933594 10.054688 7.933594 C 10.246094 7.933594 10.4375 7.933594 10.621094 7.933594 C 10.621094 7.761719 10.621094 7.625 10.636719 7.4375 C 10.636719 7.210938 10.636719 6.984375 10.636719 6.75 C 10.226562 6.75 9.851562 6.75 9.453125 6.75 C 9.453125 7.007812 9.453125 7.253906 9.441406 7.554688 M 5.429688 7.5625 C 5.429688 7.679688 5.429688 7.800781 5.429688 7.917969 C 5.839844 7.917969 6.226562 7.917969 6.609375 7.917969 C 6.609375 7.765625 6.609375 7.632812 6.621094 7.445312 C 6.621094 7.210938 6.621094 6.980469 6.621094 6.753906 C 6.203125 6.753906 5.824219 6.753906 5.441406 6.753906 C 5.441406 7.015625 5.441406 7.261719 5.429688 7.5625 Z M 5.429688 7.5625 "/>
<path style=" stroke:none;fill-rule:nonzero;fill:rgb(61.56863%,0.392157%,0.392157%);fill-opacity:1;" d="M 9.386719 9.636719 C 10.144531 9.636719 10.902344 9.636719 11.660156 9.636719 C 11.976562 10.710938 11.550781 12.5 10.152344 13.25 C 8.523438 14.125 6.902344 13.972656 5.363281 13.019531 C 4.875 12.71875 4.480469 12.269531 4.027344 11.878906 C 4.125 11.621094 4.238281 11.378906 4.371094 11.125 C 4.65625 11.113281 4.917969 11.113281 5.222656 11.140625 C 5.476562 11.292969 5.679688 11.4375 5.902344 11.550781 C 6.816406 12.019531 7.773438 12.097656 8.734375 11.738281 C 9.785156 11.347656 10.058594 10.410156 9.386719 9.636719 Z M 9.386719 9.636719 "/>
<path style=" stroke:none;fill-rule:nonzero;fill:rgb(61.960787%,0.392157%,0.392157%);fill-opacity:1;" d="M 6.4375 4.996094 C 6.199219 5.019531 5.96875 5.019531 5.667969 5.019531 C 5.933594 5.351562 6.171875 5.652344 6.4375 5.988281 C 5.839844 5.988281 5.285156 5.988281 4.71875 5.988281 C 4.65625 6.214844 4.605469 6.417969 4.535156 6.675781 C 4.03125 5.839844 3.988281 5.007812 4.28125 4.15625 C 4.632812 3.140625 5.382812 2.503906 6.386719 2.203125 C 8.085938 1.695312 9.691406 1.882812 11.148438 2.953125 C 11.300781 3.058594 11.421875 3.207031 11.5625 3.355469 C 11.421875 3.683594 11.289062 4 11.125 4.300781 C 11.015625 4.5 10.824219 4.550781 10.617188 4.429688 C 10.410156 4.3125 10.214844 4.167969 10.007812 4.046875 C 9.332031 3.65625 8.609375 3.539062 7.847656 3.703125 C 7.144531 3.859375 6.644531 4.257812 6.4375 4.996094 Z M 6.4375 4.996094 "/>
<path style=" stroke:none;fill-rule:nonzero;fill:rgb(0.392157%,0%,0%);fill-opacity:1;" d="M 9.355469 9.628906 C 10.058594 10.410156 9.785156 11.347656 8.734375 11.738281 C 7.773438 12.097656 6.816406 12.019531 5.902344 11.550781 C 5.679688 11.4375 5.476562 11.292969 5.25 11.144531 C 5.351562 11.066406 5.488281 11.03125 5.566406 10.941406 C 5.890625 10.578125 6.1875 10.1875 6.515625 9.828125 C 6.613281 9.722656 6.785156 9.636719 6.925781 9.632812 C 7.726562 9.617188 8.527344 9.625 9.355469 9.628906 Z M 9.355469 9.628906 "/>
<path style=" stroke:none;fill-rule:nonzero;fill:rgb(61.960787%,0%,0%);fill-opacity:1;" d="M 5.441406 7.507812 C 5.441406 7.261719 5.441406 7.015625 5.441406 6.753906 C 5.824219 6.753906 6.203125 6.753906 6.621094 6.753906 C 6.621094 6.980469 6.621094 7.210938 6.585938 7.472656 C 6.183594 7.503906 5.8125 7.503906 5.441406 7.507812 Z M 5.441406 7.507812 "/>
<path style=" stroke:none;fill-rule:nonzero;fill:rgb(61.56863%,0.784314%,0.784314%);fill-opacity:1;" d="M 9.453125 7.496094 C 9.453125 7.253906 9.453125 7.007812 9.453125 6.75 C 9.851562 6.75 10.226562 6.75 10.636719 6.75 C 10.636719 6.984375 10.636719 7.210938 10.601562 7.464844 C 10.195312 7.496094 9.824219 7.496094 9.453125 7.496094 Z M 9.453125 7.496094 "/>
<path style=" stroke:none;fill-rule:nonzero;fill:rgb(3.529412%,1.568628%,1.568628%);fill-opacity:1;" d="M 5.433594 7.535156 C 5.8125 7.503906 6.183594 7.503906 6.582031 7.503906 C 6.609375 7.632812 6.609375 7.765625 6.609375 7.917969 C 6.226562 7.917969 5.839844 7.917969 5.429688 7.917969 C 5.429688 7.800781 5.429688 7.679688 5.433594 7.535156 Z M 5.433594 7.535156 "/>
<path style=" stroke:none;fill-rule:nonzero;fill:rgb(3.529412%,1.568628%,1.568628%);fill-opacity:1;" d="M 9.449219 7.527344 C 9.824219 7.496094 10.195312 7.496094 10.59375 7.492188 C 10.621094 7.625 10.621094 7.761719 10.621094 7.933594 C 10.4375 7.933594 10.246094 7.933594 10.054688 7.933594 C 9.859375 7.933594 9.664062 7.933594 9.441406 7.933594 C 9.441406 7.796875 9.441406 7.675781 9.449219 7.527344 Z M 9.449219 7.527344 "/>
</g>
</svg>
