<?xml version="1.0" encoding="UTF-8"?>
<svg xmlns="http://www.w3.org/2000/svg" xmlns:xlink="http://www.w3.org/1999/xlink" width="48px" height="48px" viewBox="0 0 48 48" version="1.1">
<g id="surface1">
<path style=" stroke:none;fill-rule:nonzero;fill:rgb(0%,0%,0%);fill-opacity:1;" d="M 28.6875 48.1875 C 19.125 48.1875 9.65625 48.1875 0.1875 48.1875 C 0.1875 32.1875 0.1875 16.1875 0.1875 0.1875 C 16.1875 0.1875 32.1875 0.1875 48.1875 0.1875 C 48.1875 16.1875 48.1875 32.1875 48.1875 48.1875 C 41.71875 48.1875 35.25 48.1875 28.6875 48.1875 M 19.355469 14.933594 C 19.9375 12.769531 21.429688 11.578125 23.539062 11.113281 C 25.824219 10.613281 28 10.972656 30.027344 12.144531 C 30.648438 12.503906 31.230469 12.933594 31.847656 13.292969 C 32.46875 13.65625 33.042969 13.5 33.375 12.898438 C 33.867188 12.003906 34.265625 11.054688 34.832031 10.085938 C 35.367188 9.144531 34.816406 8.3125 34.222656 7.863281 C 32.902344 6.871094 31.472656 5.949219 29.964844 5.289062 C 26.78125 3.894531 23.363281 3.574219 19.933594 3.8125 C 17.429688 3.988281 15.050781 4.78125 13.3125 6.707031 C 10.796875 9.488281 10.125 12.867188 10.515625 16.503906 C 10.570312 17.019531 10.78125 17.515625 10.875 18.027344 C 11.160156 19.617188 11.96875 20.960938 12.839844 22.304688 C 11.753906 22.304688 10.652344 22.304688 9.460938 22.304688 C 9.789062 20.851562 10.101562 19.453125 10.417969 18.054688 C 9.621094 18.054688 8.914062 18.054688 8.191406 18.054688 C 7.535156 20.71875 6.894531 23.332031 6.21875 26.070312 C 8.21875 26.070312 10.097656 26.070312 12.003906 26.070312 C 11.769531 27.058594 11.558594 27.9375 11.324219 28.917969 C 13.191406 28.917969 14.921875 28.917969 16.761719 28.917969 C 16.386719 29.371094 16.089844 29.722656 15.800781 30.078125 C 14.921875 31.164062 14.046875 32.253906 13.054688 33.40625 C 12.714844 34.136719 12.375 34.867188 11.890625 35.65625 C 11.753906 37.347656 12.699219 38.613281 13.820312 39.585938 C 15.695312 41.21875 17.761719 42.652344 20.273438 43.1875 C 21.332031 43.414062 22.421875 43.535156 23.507812 43.628906 C 26.839844 43.914062 30.03125 43.625 32.800781 41.4375 C 34.746094 39.902344 36.066406 37.976562 36.542969 35.558594 C 36.808594 34.199219 36.953125 32.785156 36.90625 31.402344 C 36.84375 29.628906 36.53125 27.863281 36.320312 26.03125 C 38.125 26.03125 39.988281 26.03125 41.960938 26.03125 C 41.253906 23.304688 40.574219 20.671875 39.890625 18.03125 C 39.15625 18.03125 38.472656 18.03125 37.765625 18.03125 C 38.085938 19.472656 38.398438 20.871094 38.726562 22.34375 C 37.640625 22.34375 36.703125 22.386719 35.773438 22.316406 C 35.515625 22.296875 35.140625 21.988281 35.0625 21.738281 C 34.679688 20.507812 34.382812 19.25 34.039062 17.9375 C 32.304688 17.9375 30.644531 17.9375 28.902344 17.9375 C 29.6875 16.945312 30.390625 16.054688 31.136719 15.109375 C 29.1875 14.910156 28.960938 14.867188 28.609375 15.484375 C 27.359375 17.683594 25.503906 18.421875 23.089844 18.003906 C 22.84375 17.960938 22.578125 18.046875 22.34375 17.988281 C 22.039062 17.90625 21.679688 17.8125 21.480469 17.601562 C 20.71875 16.777344 20.007812 15.90625 19.355469 14.933594 Z M 19.355469 14.933594 "/>
<path style=" stroke:none;fill-rule:nonzero;fill:rgb(98.431373%,98.431373%,98.431373%);fill-opacity:1;" d="M 13.167969 33.339844 C 14.046875 32.253906 14.921875 31.164062 15.800781 30.078125 C 16.089844 29.722656 16.386719 29.371094 16.761719 28.917969 C 14.921875 28.917969 13.191406 28.917969 11.324219 28.917969 C 11.558594 27.9375 11.769531 27.058594 12.003906 26.070312 C 10.097656 26.070312 8.21875 26.070312 6.21875 26.070312 C 6.894531 23.332031 7.535156 20.71875 8.191406 18.054688 C 8.914062 18.054688 9.621094 18.054688 10.417969 18.054688 C 10.101562 19.453125 9.789062 20.851562 9.460938 22.304688 C 10.652344 22.304688 11.753906 22.304688 12.839844 22.304688 C 11.96875 20.960938 11.160156 19.617188 10.875 18.027344 C 10.78125 17.515625 10.570312 17.019531 10.515625 16.503906 C 10.125 12.867188 10.796875 9.488281 13.3125 6.707031 C 15.050781 4.78125 17.429688 3.988281 19.933594 3.8125 C 23.363281 3.574219 26.78125 3.894531 29.964844 5.289062 C 31.472656 5.949219 32.902344 6.871094 34.222656 7.863281 C 34.816406 8.3125 35.367188 9.144531 34.75 10.046875 C 34.261719 9.617188 33.898438 9.179688 33.449219 8.855469 C 29.078125 5.652344 24.257812 5.082031 19.164062 6.605469 C 16.144531 7.511719 13.902344 9.425781 12.84375 12.472656 C 11.960938 15.023438 12.089844 17.523438 13.605469 20.027344 C 13.8125 19.25 13.972656 18.640625 14.152344 17.964844 C 15.855469 17.964844 17.519531 17.964844 19.3125 17.964844 C 18.511719 16.953125 17.796875 16.054688 17.003906 15.054688 C 17.90625 15.054688 18.59375 15.054688 19.28125 15.054688 C 20.007812 15.90625 20.71875 16.777344 21.480469 17.601562 C 21.679688 17.8125 22.039062 17.90625 22.34375 17.988281 C 22.578125 18.046875 22.84375 17.960938 23.089844 18.003906 C 25.503906 18.421875 27.359375 17.683594 28.609375 15.484375 C 28.960938 14.867188 29.1875 14.910156 31.136719 15.109375 C 30.390625 16.054688 29.6875 16.945312 28.902344 17.9375 C 30.644531 17.9375 32.304688 17.9375 34.039062 17.9375 C 34.382812 19.25 34.679688 20.507812 35.0625 21.738281 C 35.140625 21.988281 35.515625 22.296875 35.773438 22.316406 C 36.703125 22.386719 37.640625 22.34375 38.726562 22.34375 C 38.398438 20.871094 38.085938 19.472656 37.765625 18.03125 C 38.472656 18.03125 39.15625 18.03125 39.890625 18.03125 C 40.574219 20.671875 41.253906 23.304688 41.960938 26.03125 C 39.988281 26.03125 38.125 26.03125 36.320312 26.03125 C 36.53125 27.863281 36.84375 29.628906 36.90625 31.402344 C 36.953125 32.785156 36.808594 34.199219 36.542969 35.558594 C 36.066406 37.976562 34.746094 39.902344 32.800781 41.4375 C 30.03125 43.625 26.839844 43.914062 23.507812 43.628906 C 22.421875 43.535156 21.332031 43.414062 20.273438 43.1875 C 17.761719 42.652344 15.695312 41.21875 13.820312 39.585938 C 12.699219 38.613281 11.753906 37.347656 12.015625 35.660156 C 13.445312 36.808594 14.628906 38.160156 16.085938 39.058594 C 20.703125 41.917969 25.566406 42.375 30.453125 39.753906 C 34.652344 37.503906 35.933594 32.132812 34.984375 28.90625 C 32.710938 28.90625 30.4375 28.90625 28.070312 28.890625 C 25.578125 28.878906 23.175781 28.847656 20.777344 28.902344 C 20.355469 28.914062 19.835938 29.167969 19.546875 29.484375 C 18.558594 30.5625 17.675781 31.734375 16.703125 32.828125 C 16.46875 33.097656 16.050781 33.203125 15.632812 33.363281 C 14.757812 33.339844 13.964844 33.339844 13.167969 33.339844 M 28.328125 22.660156 C 28.328125 23.023438 28.328125 23.386719 28.328125 23.800781 C 28.988281 23.800781 29.574219 23.800781 30.160156 23.800781 C 30.734375 23.800781 31.3125 23.800781 31.867188 23.800781 C 31.867188 23.28125 31.867188 22.878906 31.90625 22.308594 C 31.90625 21.632812 31.90625 20.957031 31.90625 20.25 C 30.683594 20.25 29.550781 20.25 28.363281 20.25 C 28.363281 21.019531 28.363281 21.757812 28.328125 22.660156 M 16.285156 22.683594 C 16.285156 23.042969 16.285156 23.398438 16.285156 23.753906 C 17.519531 23.753906 18.675781 23.753906 19.832031 23.753906 C 19.832031 23.300781 19.832031 22.902344 19.863281 22.332031 C 19.863281 21.636719 19.863281 20.9375 19.863281 20.265625 C 18.609375 20.265625 17.476562 20.265625 16.320312 20.265625 C 16.320312 21.050781 16.320312 21.785156 16.285156 22.683594 Z M 16.285156 22.683594 "/>
<path style=" stroke:none;fill-rule:nonzero;fill:rgb(61.56863%,0.392157%,0.392157%);fill-opacity:1;" d="M 28.160156 28.90625 C 30.4375 28.90625 32.710938 28.90625 34.984375 28.90625 C 35.933594 32.132812 34.652344 37.503906 30.453125 39.753906 C 25.566406 42.375 20.703125 41.917969 16.085938 39.058594 C 14.628906 38.160156 13.445312 36.808594 12.085938 35.632812 C 12.375 34.867188 12.714844 34.136719 13.113281 33.375 C 13.964844 33.339844 14.757812 33.339844 15.667969 33.417969 C 16.425781 33.882812 17.039062 34.316406 17.703125 34.65625 C 20.449219 36.0625 23.316406 36.296875 26.207031 35.21875 C 29.351562 34.039062 30.171875 31.234375 28.160156 28.90625 Z M 28.160156 28.90625 "/>
<path style=" stroke:none;fill-rule:nonzero;fill:rgb(61.960787%,0.392157%,0.392157%);fill-opacity:1;" d="M 19.316406 14.992188 C 18.59375 15.054688 17.90625 15.054688 17.003906 15.054688 C 17.796875 16.054688 18.511719 16.953125 19.3125 17.964844 C 17.519531 17.964844 15.855469 17.964844 14.152344 17.964844 C 13.972656 18.640625 13.8125 19.25 13.605469 20.027344 C 12.089844 17.523438 11.960938 15.023438 12.84375 12.472656 C 13.902344 9.425781 16.144531 7.511719 19.164062 6.605469 C 24.257812 5.082031 29.078125 5.652344 33.449219 8.855469 C 33.898438 9.179688 34.261719 9.617188 34.683594 10.066406 C 34.265625 11.054688 33.867188 12.003906 33.375 12.898438 C 33.042969 13.5 32.46875 13.65625 31.847656 13.292969 C 31.230469 12.933594 30.648438 12.503906 30.027344 12.144531 C 28 10.972656 25.824219 10.613281 23.539062 11.113281 C 21.429688 11.578125 19.9375 12.769531 19.316406 14.992188 Z M 19.316406 14.992188 "/>
<path style=" stroke:none;fill-rule:nonzero;fill:rgb(0.392157%,0%,0%);fill-opacity:1;" d="M 28.070312 28.890625 C 30.171875 31.234375 29.351562 34.039062 26.207031 35.21875 C 23.316406 36.296875 20.449219 36.0625 17.703125 34.65625 C 17.039062 34.316406 16.425781 33.882812 15.75 33.4375 C 16.050781 33.203125 16.46875 33.097656 16.703125 32.828125 C 17.675781 31.734375 18.558594 30.5625 19.546875 29.484375 C 19.835938 29.167969 20.355469 28.914062 20.777344 28.902344 C 23.175781 28.847656 25.578125 28.878906 28.070312 28.890625 Z M 28.070312 28.890625 "/>
<path style=" stroke:none;fill-rule:nonzero;fill:rgb(61.960787%,0%,0%);fill-opacity:1;" d="M 16.320312 22.519531 C 16.320312 21.785156 16.320312 21.050781 16.320312 20.265625 C 17.476562 20.265625 18.609375 20.265625 19.863281 20.265625 C 19.863281 20.9375 19.863281 21.636719 19.761719 22.421875 C 18.546875 22.511719 17.433594 22.515625 16.320312 22.519531 Z M 16.320312 22.519531 "/>
<path style=" stroke:none;fill-rule:nonzero;fill:rgb(61.56863%,0.784314%,0.784314%);fill-opacity:1;" d="M 28.363281 22.492188 C 28.363281 21.757812 28.363281 21.019531 28.363281 20.25 C 29.550781 20.25 30.683594 20.25 31.90625 20.25 C 31.90625 20.957031 31.90625 21.632812 31.800781 22.398438 C 30.582031 22.492188 29.472656 22.492188 28.363281 22.492188 Z M 28.363281 22.492188 "/>
<path style=" stroke:none;fill-rule:nonzero;fill:rgb(3.529412%,1.568628%,1.568628%);fill-opacity:1;" d="M 16.304688 22.601562 C 17.433594 22.515625 18.546875 22.511719 19.746094 22.507812 C 19.832031 22.902344 19.832031 23.300781 19.832031 23.753906 C 18.675781 23.753906 17.519531 23.753906 16.285156 23.753906 C 16.285156 23.398438 16.285156 23.042969 16.304688 22.601562 Z M 16.304688 22.601562 "/>
<path style=" stroke:none;fill-rule:nonzero;fill:rgb(3.529412%,1.568628%,1.568628%);fill-opacity:1;" d="M 28.34375 22.578125 C 29.472656 22.492188 30.582031 22.492188 31.78125 22.480469 C 31.867188 22.878906 31.867188 23.28125 31.867188 23.800781 C 31.3125 23.800781 30.734375 23.800781 30.160156 23.800781 C 29.574219 23.800781 28.988281 23.800781 28.328125 23.800781 C 28.328125 23.386719 28.328125 23.023438 28.34375 22.578125 Z M 28.34375 22.578125 "/>
</g>
</svg>
